Coordinates
version=1
nRows=33
nColumns=28
inDegrees=yes

Units are S.I. units (second, meters, Newtons, ...)
If the header above contains a line with 'inDegrees', this indicates whether rotational values are in degrees (yes) or radians (no).

endheader
time	pelvis_tilt	pelvis_list	pelvis_rot	pelvis_tx	pelvis_ty	pelvis_tz	hip_flexion_r	hip_adduction_r	hip_rotation_r	knee_adduction_r	knee_rotation_r	knee_flexion_r	ankle_adduction_r	ankle_rotation_r	ankle_flexion_r	hip_flexion_l	hip_adduction_l	hip_rotation_l	knee_adduction_l	knee_rotation_l	knee_flexion_l	ankle_adduction_l	ankle_rotation_l	ankle_flexion_l	lumbar_extension	lumbar_bending	lumbar_rotation
11.21000	4912.587996	-5351.490689	4435.119345	0.000000	0.900000	0.000000	2348.494224	-67.866753	53.968868	525.690945	835.607014	3601.452309	813.820267	283.729989	634.246977	702.886941	-113.926828	707.445780	315.570928	61.873000	697.600789	-268.586363	579.512964	505.435279	0.000000	0.000000	0.000000
11.22000	4828.145861	-5318.926072	4428.740279	0.000000	0.900000	0.000000	2165.726451	-40.513750	12.537139	433.982210	818.716595	2995.344738	849.750075	150.723529	550.447910	782.505300	-67.984714	698.651527	310.559830	99.927427	682.796835	-228.483611	548.896210	539.340445	0.000000	0.000000	0.000000
11.23000	4743.107404	-5278.073634	4420.541956	0.000000	0.900000	0.000000	1986.399877	14.472300	27.670719	382.589368	752.147123	2381.518529	745.275162	138.249621	313.699937	879.745235	-15.505146	650.715442	310.940091	152.122881	681.640195	-211.190982	552.458061	542.979870	0.000000	0.000000	0.000000
11.24000	4649.267231	-5214.975054	4403.683398	0.000000	0.900000	0.000000	1850.505820	84.509361	183.964065	364.293825	565.687832	1829.512469	291.717808	155.962091	39.152049	991.434352	69.261023	628.951205	323.039827	163.049840	687.669087	-208.588753	587.192611	541.887874	0.000000	0.000000	0.000000
11.25000	4556.598099	-5136.603260	4381.494190	0.000000	0.900000	0.000000	1765.790289	122.460322	394.745305	255.562033	516.357134	1416.097899	-6.092475	-108.022794	14.409405	1098.339674	188.827147	640.825376	306.520472	188.798922	716.174251	-204.424654	595.317984	561.144334	0.000000	0.000000	0.000000
11.26000	4461.307090	-5044.291220	4361.371357	0.000000	0.900000	0.000000	1752.821222	99.833254	553.530365	310.219270	447.260922	1232.250976	-99.311128	-128.279195	43.972376	1207.103092	303.227808	607.598353	280.279564	292.645021	756.504087	-208.577461	655.660774	571.672218	0.000000	0.000000	0.000000
11.27000	4353.495701	-4949.238209	4383.153428	0.000000	0.900000	0.000000	1867.191324	122.648966	616.162275	270.303245	414.032505	1100.562063	-195.740348	-165.427098	13.569258	1321.281448	382.185536	574.755025	278.324775	478.669808	782.499878	-233.095051	894.217332	573.105461	0.000000	0.000000	0.000000
11.28000	4269.592810	-4858.227900	4440.209241	0.000000	0.900000	0.000000	2029.812906	48.397347	503.874608	238.598420	482.875101	1114.680806	-233.249481	-160.305144	19.057944	1399.622986	416.941479	566.456811	259.099073	862.132889	806.814753	-233.212558	1074.117105	538.299047	0.000000	0.000000	0.000000
11.29000	4204.816521	-4764.265207	4491.330318	0.000000	0.900000	0.000000	2193.122350	-53.061817	424.897606	273.781080	428.717328	1182.992442	-234.675669	-27.613421	38.532227	1426.938616	463.814229	634.695751	239.078529	1236.192948	823.324072	-253.529869	926.503385	386.627178	0.000000	0.000000	0.000000
11.30000	4131.102097	-4682.359925	4522.645937	0.000000	0.900000	0.000000	2375.822730	-147.957990	438.575036	303.213812	475.336705	1308.683563	-206.106064	-49.164160	69.841601	1447.700338	496.532530	701.548328	197.862603	1506.937951	861.049616	-313.473177	517.720797	277.451936	0.000000	0.000000	0.000000
11.31000	4054.744144	-4614.715817	4564.566062	0.000000	0.900000	0.000000	2562.070326	-165.261532	511.364762	336.602020	436.159967	1453.574199	-177.990815	-70.277507	107.207901	1482.629931	461.906338	663.530387	218.818131	1532.943535	938.806250	-322.072940	374.770005	226.698470	0.000000	0.000000	0.000000
11.32000	3992.244604	-4561.053202	4641.057126	0.000000	0.900000	0.000000	2754.300431	-167.479411	564.442228	372.575649	401.265694	1627.328661	-173.849442	-107.621889	164.808555	1506.547979	359.374927	577.364666	267.080242	1509.434801	1044.261748	-324.727253	422.043642	230.268582	0.000000	0.000000	0.000000
11.33000	3944.664452	-4530.024455	4727.234799	0.000000	0.900000	0.000000	2920.172933	-170.606667	587.018912	421.355511	378.041142	1789.600974	-197.983987	-139.799403	245.858913	1492.451952	234.915902	528.663932	290.382644	1517.654004	1156.806142	-336.921546	496.852092	256.789435	0.000000	0.000000	0.000000
11.34000	3898.943915	-4517.581884	4809.129898	0.000000	0.900000	0.000000	3034.691261	-117.261598	607.537507	451.219557	300.740044	1897.764420	-219.394079	-156.160889	311.871442	1440.764752	156.274344	550.434233	278.314494	1463.570128	1232.128476	-388.139768	529.489095	279.210474	0.000000	0.000000	0.000000
11.35000	3837.251771	-4512.340574	4899.471309	0.000000	0.900000	0.000000	3172.756461	-118.126624	552.156667	447.427865	326.679798	2020.991234	-229.443368	-193.531748	372.237742	1365.672597	130.090747	636.753869	246.279056	1321.488853	1248.071688	-415.890030	519.394812	290.615423	0.000000	0.000000	0.000000
11.36000	3775.429680	-4496.313383	4964.795143	0.000000	0.900000	0.000000	3326.440737	-174.850040	505.041786	495.182963	357.870238	2159.106160	-236.272245	-164.864651	449.676889	1283.048292	103.428362	673.589461	216.156462	1180.540982	1215.703391	-414.097234	503.264998	236.390963	0.000000	0.000000	0.000000
11.37000	3714.019496	-4486.956886	5006.039230	0.000000	0.900000	0.000000	3455.196095	-183.937798	486.129377	541.617087	326.208047	2269.339087	-242.369784	-104.298907	529.457041	1199.984576	60.904121	672.043670	194.321678	1053.317968	1137.842056	-396.625525	496.386964	86.373498	0.000000	0.000000	0.000000
11.38000	3638.988742	-4498.185122	5062.468676	0.000000	0.900000	0.000000	3563.818882	-151.997382	426.310273	576.910656	242.329100	2335.854215	-256.967596	-3.490628	593.521730	1138.963808	16.436255	679.967400	162.879873	955.985058	1043.158753	-395.169338	468.208077	-129.106606	0.000000	0.000000	0.000000
11.39000	3546.629960	-4510.193667	5115.657457	0.000000	0.900000	0.000000	3690.465258	-165.043266	342.214280	588.235786	231.996848	2399.346468	-265.751095	65.883702	635.695566	1110.972388	5.125955	680.934262	110.110590	867.865579	959.136465	-378.711214	398.630192	-334.784481	0.000000	0.000000	0.000000
11.40000	3458.878157	-4506.034656	5154.691188	0.000000	0.900000	0.000000	3829.017848	-217.564793	278.876191	603.626397	265.294896	2483.004865	-268.977215	114.705042	688.150865	1054.592046	4.247739	688.325372	86.966576	730.732016	840.232731	-213.096819	381.800237	-323.597344	0.000000	0.000000	0.000000
11.41000	3397.151944	-4488.567437	5180.856240	0.000000	0.900000	0.000000	3948.221314	-261.359825	260.541929	631.328529	277.390125	2576.632711	-257.735122	159.144532	740.422933	946.549288	5.587453	664.449304	72.977763	600.856389	651.521953	-34.871793	421.643257	-255.923830	0.000000	0.000000	0.000000
11.42000	3341.855771	-4493.060141	5204.769269	0.000000	0.900000	0.000000	4039.155243	-248.751072	220.142339	665.886050	222.178074	2657.407475	-244.214563	251.923184	790.397819	843.860608	3.094670	664.531962	8.961924	620.620689	420.659472	90.336109	306.115223	-240.678278	0.000000	0.000000	0.000000
11.43000	3280.402752	-4511.904227	5232.683122	0.000000	0.900000	0.000000	4142.929264	-270.221994	160.215123	664.947807	248.534286	2761.130179	-218.630049	282.606622	841.238981	790.222474	6.322364	774.013165	-39.644486	572.678726	223.277052	214.629249	234.187310	-219.925128	0.000000	0.000000	0.000000
11.44000	3233.950222	-4504.672865	5237.794088	0.000000	0.900000	0.000000	4236.855043	-300.442494	159.624327	691.720364	276.393981	2856.759722	-194.371140	305.631823	881.989238	754.465836	5.305642	795.091190	-56.988989	521.899293	90.387134	368.066163	308.821491	-168.218223	0.000000	0.000000	0.000000
11.45000	3196.001950	-4482.624267	5238.284614	0.000000	0.900000	0.000000	4338.611740	-321.112481	181.385539	704.279992	303.579311	2971.216368	-178.184037	309.073061	944.215949	726.607081	18.530950	794.086952	-67.948814	604.414690	-26.167737	529.908490	301.593768	-116.204860	0.000000	0.000000	0.000000
11.46000	3158.146370	-4477.522080	5241.605492	0.000000	0.900000	0.000000	4403.112188	-307.689485	167.330389	707.800728	285.643412	3039.414407	-168.953419	345.786241	991.407319	717.434410	36.696386	888.778680	-68.229984	695.291459	-106.249741	582.414250	179.466764	-87.186887	0.000000	0.000000	0.000000
11.47000	3102.123030	-4497.959734	5248.809594	0.000000	0.900000	0.000000	4473.318402	-333.880021	108.906378	683.093957	325.287906	3095.689464	-148.018660	367.129496	1018.269701	751.386466	58.045446	977.031691	-72.901892	712.111254	-135.945134	489.388561	103.855413	-65.867670	0.000000	0.000000	0.000000
11.48000	3044.199668	-4508.414096	5238.271264	0.000000	0.900000	0.000000	4536.721161	-360.451012	90.664062	678.805799	365.380722	3130.525206	-127.458993	381.226251	1027.637537	792.429280	60.149200	955.219747	-78.967461	730.890400	-155.314568	437.890426	184.708025	-39.443185	0.000000	0.000000	0.000000
11.49000	2995.418018	-4510.392025	5238.698137	0.000000	0.900000	0.000000	4595.764959	-376.375172	77.882420	681.810680	382.703249	3164.711710	-113.503171	398.031071	1038.104502	801.130563	79.332647	958.681786	-66.696803	762.795983	-203.588762	440.898701	259.611963	-30.865185	0.000000	0.000000	0.000000
11.50000	2957.994834	-4518.003700	5244.746513	0.000000	0.900000	0.000000	4639.365810	-373.634307	59.297713	676.892206	383.747193	3198.026417	-105.215913	409.793531	1053.237228	806.088760	106.524675	1004.744095	-61.863841	798.070799	-248.053311	431.829887	253.160678	-35.803911	0.000000	0.000000	0.000000
11.51000	2926.738603	-4522.702713	5241.457076	0.000000	0.900000	0.000000	4673.458091	-374.030507	38.613901	677.733206	382.595831	3225.652818	-97.565860	440.216052	1063.548605	840.590075	119.792508	1026.805412	-64.727313	836.495039	-246.381812	409.477550	236.980389	-30.789548	0.000000	0.000000	0.000000
11.52000	2904.568873	-4516.429793	5224.071231	0.000000	0.900000	0.000000	4705.370131	-386.818740	18.399487	654.896901	399.111196	3267.563642	-79.239349	459.041693	1089.513905	878.986097	125.541047	1041.911520	-56.364081	835.557484	-225.031872	376.244994	241.008903	-14.120704	0.000000	0.000000	0.000000
11.53000	2903.324130	-4500.536504	5191.996776	0.000000	0.900000	0.000000	4705.559436	-382.205150	25.796457	640.428181	397.799306	3294.925868	-59.090717	470.480245	1116.168523	905.023905	121.789301	1043.863933	-44.552178	812.053903	-195.631369	341.970147	240.663520	3.061383	0.000000	0.000000	0.000000
